PathFileType	4	(X/Y/Z)	./resultDataOpenSim/trcMotMarkerGrf/sub10/qtm-12-03.trc
DataRate	CameraRate	NumFrames	NumMarkers	Units	OrigDataRate	OrigDataStartFrame	OrigNumFrames
250.000000	250.000000	6	24	m	250.000000	408	466
Frame#	Time	L.Toe.Tip			R.Toe.Tip			L.Ankle.Lat			R.Ankle.Lat			L.Ankle.Med			R.Ankle.Med			L.Heel			R.Heel			L.Knee.Lat			R.Knee.Lat			L.Knee.Med			R.Knee.Med			L.Thigh.Upper			R.Thigh.Upper			L.ASIS			R.ASIS			V.Sacral			L.Acromium			R.Acromium			C7			L.Elbow			R.Elbow			L.Wrist.Lat			R.Wrist.Lat
		X1	Y1	Z1	X2	Y2	Z2	X3	Y3	Z3	X4	Y4	Z4	X5	Y5	Z5	X6	Y6	Z6	X7	Y7	Z7	X8	Y8	Z8	X9	Y9	Z9	X10	Y10	Z10	X11	Y11	Z11	X12	Y12	Z12	X13	Y13	Z13	X14	Y14	Z14	X15	Y15	Z15	X16	Y16	Z16	X17	Y17	Z17	X18	Y18	Z18	X19	Y19	Z19	X20	Y20	Z20	X21	Y21	Z21	X22	Y22	Z22	X23	Y23	Z23	X24	Y24	Z24

408	1.628	1.6142286	0.1383895	-0.12706414	0.88102483	0.038071532	0.045702433	1.4905436	0.095216778	-0.16860716	0.74838782	0.083156563	0.083576985	1.486403	0.11730978	-0.088703782	0.77434703	0.10333326	-0.00059929312	1.4504738	0.034654291	-0.13067347	0.69232256	0.072003847	0.037725162	1.3244804	0.44924406	-0.17671656	0.94240691	0.43911246	0.11733197	1.3283003	0.42015948	-0.058436314	0.97072732	0.43214994	-0.0080354182	1.1674251	0.79711185	-0.21381463	1.0335505	0.84117122	0.15566354	1.2024646	0.90621962	-0.13389962	1.1344648	0.92625454	0.10784983	0.96909019	0.91808063	-0.075740144	1.1017009	1.386346	-0.18299023	1.0873153	1.3749216	0.14216251	1.0070992	1.4076884	-0.02634091	0.95354859	1.078302	-0.22489261	1.1631424	1.0270539	0.2132228	0.994446	0.84804751	-0.27912611	1.4011087	0.97165372	0.155868
409	1.632	1.6194016	0.13592394	-0.12817684	0.88136577	0.038078206	0.045804223	1.4951667	0.093868108	-0.16883826	0.7497695	0.085138431	0.084330715	1.4916663	0.11597964	-0.088878612	0.7756087	0.10497972	8.7705829e-05	1.4548366	0.033620433	-0.13060617	0.69332625	0.074786042	0.038626235	1.3326173	0.44939946	-0.17643284	0.94687133	0.4389104	0.11705043	1.3380785	0.42083058	-0.057920275	0.97559439	0.43176321	-0.0079627728	1.1738945	0.79708285	-0.21436082	1.0391223	0.84090042	0.15490956	1.2090621	0.9056351	-0.13415657	1.1402977	0.92577713	0.10763173	0.97834782	0.91678729	-0.078266619	1.107523	1.3858381	-0.18385029	1.0933569	1.3741331	0.14140904	1.0129738	1.4069722	-0.027120622	0.95878276	1.0777827	-0.22531362	1.1695185	1.0261134	0.21146303	1.0000621	0.84747469	-0.27941277	1.4080427	0.97128034	0.15434055
410	1.636	1.6242694	0.13321642	-0.12929301	0.88171405	0.038100763	0.045907281	1.4994409	0.09241392	-0.16902142	0.75123592	0.087202669	0.085023994	1.4966656	0.11455922	-0.088990814	0.77700255	0.10672315	0.00075625987	1.4588285	0.032539806	-0.13048507	0.69444904	0.077715634	0.039465597	1.3405939	0.44944987	-0.17621067	0.95142437	0.43873878	0.11668257	1.3482857	0.42152347	-0.057336319	0.98059661	0.4314085	-0.0078742576	1.1804476	0.79715614	-0.21490812	1.044819	0.84064904	0.15415665	1.2157225	0.90524361	-0.13444721	1.1462492	0.92535414	0.10737952	0.98565946	0.91601207	-0.079924516	1.1133777	1.3854193	-0.18474856	1.0994296	1.3734359	0.14061915	1.0189062	1.4063536	-0.027927539	0.96397373	1.077427	-0.22585538	1.1756482	1.0251995	0.2097271	1.0057977	0.84698194	-0.27973738	1.4148687	0.97086633	0.15285106
411	1.64	1.6288226	0.13038824	-0.13040338	0.8820641	0.038126286	0.04601044	1.5033992	0.090874404	-0.16914738	0.75283456	0.089344361	0.0856526	1.5013899	0.11312646	-0.089041095	0.77854061	0.10856532	0.0013961808	1.4624765	0.031449984	-0.1303775	0.69569701	0.080787101	0.040230904	1.3483728	0.44940736	-0.1760669	0.95616186	0.43863286	0.11636058	1.3581798	0.42220918	-0.056906411	0.98574844	0.43108868	-0.0078027527	1.1870921	0.79731308	-0.21544796	1.0506488	0.84041168	0.15341805	1.2224508	0.905028	-0.1347658	1.1523303	0.92498874	0.10709021	0.992778	0.915496	-0.081356222	1.1192721	1.3850871	-0.18568184	1.1055319	1.3728289	0.13978898	1.0248979	1.4058214	-0.028767461	0.96931315	1.0771565	-0.22645993	1.181777	1.0243735	0.20792729	1.0116505	0.84657118	-0.2801077	1.4215886	0.97041315	0.15139897
412	1.644	1.6330299	0.12769353	-0.13154928	0.8824249	0.038140337	0.046104936	1.5070682	0.089271681	-0.16921026	0.75460388	0.091576461	0.086230105	1.5057677	0.11183096	-0.089046329	0.78023528	0.11050245	0.00199851	1.4658095	0.030392541	-0.13033316	0.69708395	0.083999997	0.040918722	1.3559392	0.44929486	-0.17600437	0.96110069	0.43859791	0.11611356	1.3672747	0.42288389	-0.056769246	0.99106279	0.43080326	-0.0077565396	1.1938341	0.79753903	-0.21596784	1.0566272	0.84018793	0.15270083	1.2292595	0.90496025	-0.13510595	1.1585638	0.92468109	0.10674427	1.000568	0.91506472	-0.082860947	1.1252044	1.3848367	-0.18664548	1.1116494	1.3723092	0.1389174	1.0309386	1.405369	-0.029645502	0.97490027	1.076918	-0.22704489	1.188043	1.0236714	0.20598364	1.0176139	0.84623667	-0.28052887	1.4282038	0.9699318	0.14998328
413	1.648	1.6368785	0.12538036	-0.13279979	0.8828085	0.038139269	0.046182988	1.5104675	0.087621538	-0.16920659	0.75651505	0.093924703	0.086767713	1.5097625	0.11081856	-0.089011177	0.78209808	0.11252461	0.0025580143	1.4688576	0.029374985	-0.13029498	0.6986283	0.087362432	0.041527253	1.3632934	0.44913772	-0.17601736	0.96622302	0.43863828	0.11593305	1.3756753	0.42355483	-0.056885614	0.99654902	0.43054712	-0.0077347918	1.2006773	0.79781951	-0.21645735	1.0627801	0.83998348	0.15200569	1.2361617	0.90500965	-0.13546507	1.1649621	0.92442887	0.10633208	1.0084379	0.91475195	-0.084210951	1.1311623	1.3846617	-0.18764005	1.1177744	1.3718762	0.13800075	1.0370123	1.4049948	-0.030561799	0.9807118	1.0767041	-0.22759569	1.194322	1.0230633	0.20387543	1.0236867	0.84597029	-0.2809969	1.434708	0.96942486	0.14860222
